<svg xmlns="http://www.w3.org/2000/svg" width="32" height="32" viewBox="0 0 32 32"><g transform="translate(-1003 -290)"><rect width="32" height="32" fill="#ff0001" rx="8" transform="translate(1003 290)"/><path fill="#fff" d="M1023.66 295h-2.81v22h3.7a5.58 5.58 0 005.45-5.6v-10.77a5.58 5.58 0 00-5.46-5.63zm-10.2 0a5.58 5.58 0 00-5.46 5.6v10.77a5.58 5.58 0 005.46 5.63h5.1v-22h-4.22zm.07 1.82h3.25v18.37h-3.19c-2.83-.27-3.7-1.95-3.81-4.25v-9.41h1.65v.1a2.04 2.04 0 104.07 0 2.08 2.08 0 00-1.16-1.86 2 2 0 00-.88-.21 2.05 2.05 0 00-2.03 1.97h-1.65v-.43c.1-2.3.95-4 3.74-4.28zm11.62 8.06a2.23 2.23 0 11-2.19 2.23 2.2 2.2 0 012.19-2.23z"/></g></svg>